<svg width="512" height="512" viewBox="0 0 512 512" fill="none" xmlns="http://www.w3.org/2000/svg" aria-hidden>
  <defs>
    <linearGradient id="g" x1="0" y1="0" x2="1" y2="1">
      <stop offset="0%" stop-color="#00ffff"/>
      <stop offset="100%" stop-color="#0000ff"/>
    </linearGradient>
  </defs>
  <rect width="512" height="512" rx="48" fill="#f8fafc"/>
  <g transform="translate(56,40)">
    <ellipse cx="200" cy="320" rx="200" ry="60" fill="#e2e8f0"/>
    <circle cx="200" cy="220" r="140" fill="url(#g)"/>
    <g fill="#0f172a" opacity="0.12">
      <circle cx="130" cy="180" r="10"/>
      <circle cx="170" cy="210" r="8"/>
      <circle cx="220" cy="190" r="9"/>
      <circle cx="250" cy="230" r="7"/>
      <circle cx="190" cy="170" r="6"/>
      <circle cx="230" cy="160" r="5"/>
      <circle cx="160" cy="240" r="6"/>
      <circle cx="210" cy="250" r="5"/>
      <circle cx="260" cy="210" r="6"/>
    </g>
    <path d="M40 320h320l-20 40a40 40 0 0 1-36 24H96a40 40 0 0 1-36-24l-20-40Z" fill="#111827"/>
    <g fill="#e5e7eb">
      <rect x="70" y="320" width="12" height="48" rx="6"/>
      <rect x="110" y="320" width="12" height="48" rx="6"/>
      <rect x="150" y="320" width="12" height="48" rx="6"/>
      <rect x="190" y="320" width="12" height="48" rx="6"/>
      <rect x="230" y="320" width="12" height="48" rx="6"/>
      <rect x="270" y="320" width="12" height="48" rx="6"/>
      <rect x="310" y="320" width="12" height="48" rx="6"/>
    </g>
  </g>
</svg>
